<svg width="91" height="99" viewBox="0 0 91 99" fill="none" xmlns="http://www.w3.org/2000/svg">
<g clip-path="url(#clip0_1_1060)">
<path d="M75.3695 94.8318C75.5115 94.7838 75.5454 94.5983 75.4294 94.5032L70.6708 90.6035C70.5582 90.5113 70.388 90.5737 70.3619 90.7169L69.2915 96.5852C69.2654 96.7283 69.4026 96.8468 69.5404 96.8003L75.3695 94.8318Z" stroke="#701A75" stroke-width="0.715909" stroke-linecap="round" stroke-linejoin="round"/>
</g>
<g clip-path="url(#clip1_1_1060)">
<path d="M78.1101 79.8069C78.2521 79.7589 78.286 79.5734 78.17 79.4783L73.4114 75.5786C73.2988 75.4863 73.1286 75.5488 73.1025 75.692L72.0321 81.5603C72.006 81.7034 72.1432 81.8219 72.281 81.7754L78.1101 79.8069Z" stroke="#701A75" stroke-width="0.715909" stroke-linecap="round" stroke-linejoin="round"/>
</g>
<g clip-path="url(#clip2_1_1060)">
<path d="M80.8507 64.782C80.9927 64.734 81.0266 64.5485 80.9106 64.4534L76.152 60.5537C76.0394 60.4614 75.8692 60.5239 75.8431 60.667L74.7727 66.5354C74.7466 66.6785 74.8838 66.797 75.0216 66.7505L80.8507 64.782Z" stroke="#701A75" stroke-width="0.715909" stroke-linecap="round" stroke-linejoin="round"/>
</g>
<g clip-path="url(#clip3_1_1060)">
<path d="M83.5912 49.7573C83.7333 49.7093 83.7671 49.5238 83.6511 49.4288L78.8925 45.529C78.78 45.4368 78.6098 45.4993 78.5837 45.6424L77.5133 51.5107C77.4872 51.6538 77.6244 51.7724 77.7622 51.7258L83.5912 49.7573Z" stroke="#701A75" stroke-width="0.715909" stroke-linecap="round" stroke-linejoin="round"/>
</g>
<g clip-path="url(#clip4_1_1060)">
<path d="M86.3318 34.7324C86.4739 34.6844 86.5077 34.4989 86.3917 34.4039L81.6331 30.5041C81.5206 30.4119 81.3504 30.4744 81.3243 30.6175L80.2539 36.4858C80.2278 36.6289 80.365 36.7475 80.5028 36.7009L86.3318 34.7324Z" stroke="#701A75" stroke-width="0.715909" stroke-linecap="round" stroke-linejoin="round"/>
</g>
<g clip-path="url(#clip5_1_1060)">
<path d="M89.0724 19.7075C89.2145 19.6595 89.2483 19.474 89.1323 19.379L84.3737 15.4792C84.2612 15.387 84.091 15.4495 84.0649 15.5926L82.9945 21.4609C82.9684 21.604 83.1056 21.7226 83.2434 21.676L89.0724 19.7075Z" stroke="#701A75" stroke-width="0.715909" stroke-linecap="round" stroke-linejoin="round"/>
</g>
<g clip-path="url(#clip6_1_1060)">
<path d="M60.3447 92.091C60.4868 92.0431 60.5206 91.8576 60.4046 91.7625L55.646 87.8628C55.5335 87.7705 55.3633 87.833 55.3372 87.9761L54.2668 93.8444C54.2407 93.9876 54.3778 94.1061 54.5157 94.0596L60.3447 92.091Z" stroke="#701A75" stroke-width="0.715909" stroke-linecap="round" stroke-linejoin="round"/>
</g>
<g clip-path="url(#clip7_1_1060)">
<path d="M63.0852 77.0664C63.2273 77.0184 63.2611 76.8329 63.1452 76.7378L58.3865 72.8381C58.274 72.7459 58.1038 72.8084 58.0777 72.9515L57.0073 78.8198C56.9812 78.9629 57.1184 79.0815 57.2562 79.0349L63.0852 77.0664Z" stroke="#701A75" stroke-width="0.715909" stroke-linecap="round" stroke-linejoin="round"/>
</g>
<g clip-path="url(#clip8_1_1060)">
<path d="M65.8258 62.0415C65.9679 61.9935 66.0017 61.808 65.8858 61.7129L61.1271 57.8132C61.0146 57.721 60.8444 57.7835 60.8183 57.9266L59.7479 63.7949C59.7218 63.938 59.859 64.0566 59.9968 64.01L65.8258 62.0415Z" stroke="#701A75" stroke-width="0.715909" stroke-linecap="round" stroke-linejoin="round"/>
</g>
<g clip-path="url(#clip9_1_1060)">
<path d="M68.5664 47.0166C68.7085 46.9686 68.7423 46.7831 68.6264 46.688L63.8677 42.7883C63.7552 42.6961 63.585 42.7586 63.5589 42.9017L62.4885 48.77C62.4624 48.9131 62.5996 49.0317 62.7374 48.9851L68.5664 47.0166Z" stroke="#701A75" stroke-width="0.715909" stroke-linecap="round" stroke-linejoin="round"/>
</g>
<g clip-path="url(#clip10_1_1060)">
<path d="M71.307 31.9917C71.449 31.9437 71.4829 31.7582 71.3669 31.6631L66.6083 27.7634C66.4957 27.6712 66.3255 27.7337 66.2994 27.8768L65.229 33.7451C65.2029 33.8882 65.3401 34.0068 65.4779 33.9602L71.307 31.9917Z" stroke="#701A75" stroke-width="0.715909" stroke-linecap="round" stroke-linejoin="round"/>
</g>
<g clip-path="url(#clip11_1_1060)">
<path d="M74.0476 16.967C74.1896 16.919 74.2235 16.7335 74.1075 16.6385L69.3489 12.7387C69.2363 12.6465 69.0661 12.709 69.04 12.8521L67.9696 18.7204C67.9435 18.8635 68.0807 18.9821 68.2185 18.9355L74.0476 16.967Z" stroke="#701A75" stroke-width="0.715909" stroke-linecap="round" stroke-linejoin="round"/>
</g>
<g clip-path="url(#clip12_1_1060)">
<path d="M45.3199 89.3506C45.4619 89.3026 45.4958 89.1171 45.3798 89.022L40.6211 85.1223C40.5086 85.0301 40.3384 85.0925 40.3123 85.2357L39.2419 91.104C39.2158 91.2471 39.353 91.3656 39.4908 91.3191L45.3199 89.3506Z" stroke="#701A75" stroke-width="0.715909" stroke-linecap="round" stroke-linejoin="round"/>
</g>
<g clip-path="url(#clip13_1_1060)">
<path d="M48.0605 74.3257C48.2025 74.2777 48.2364 74.0922 48.1204 73.9971L43.3617 70.0974C43.2492 70.0051 43.079 70.0676 43.0529 70.2108L41.9825 76.0791C41.9564 76.2222 42.0936 76.3407 42.2314 76.2942L48.0605 74.3257Z" stroke="#701A75" stroke-width="0.715909" stroke-linecap="round" stroke-linejoin="round"/>
</g>
<g clip-path="url(#clip14_1_1060)">
<path d="M50.8011 59.3008C50.9431 59.2528 50.977 59.0673 50.861 58.9722L46.1023 55.0725C45.9898 54.9802 45.8196 55.0427 45.7935 55.1858L44.7231 61.0542C44.697 61.1973 44.8342 61.3158 44.972 61.2693L50.8011 59.3008Z" stroke="#701A75" stroke-width="0.715909" stroke-linecap="round" stroke-linejoin="round"/>
</g>
<g clip-path="url(#clip15_1_1060)">
<path d="M53.5416 44.2761C53.6837 44.2281 53.7175 44.0426 53.6015 43.9476L48.8429 40.0478C48.7304 39.9556 48.5602 40.0181 48.5341 40.1612L47.4637 46.0295C47.4376 46.1726 47.5747 46.2912 47.7126 46.2446L53.5416 44.2761Z" stroke="#701A75" stroke-width="0.715909" stroke-linecap="round" stroke-linejoin="round"/>
</g>
<g clip-path="url(#clip16_1_1060)">
<path d="M56.2822 29.2512C56.4243 29.2032 56.4581 29.0177 56.3421 28.9227L51.5835 25.0229C51.471 24.9307 51.3008 24.9932 51.2747 25.1363L50.2043 31.0046C50.1782 31.1477 50.3153 31.2663 50.4532 31.2197L56.2822 29.2512Z" stroke="#701A75" stroke-width="0.715909" stroke-linecap="round" stroke-linejoin="round"/>
</g>
<g clip-path="url(#clip17_1_1060)">
<path d="M59.0227 14.2263C59.1648 14.1783 59.1986 13.9928 59.0827 13.8978L54.324 9.99801C54.2115 9.90578 54.0413 9.96827 54.0152 10.1114L52.9448 15.9797C52.9187 16.1228 53.0559 16.2414 53.1937 16.1948L59.0227 14.2263Z" stroke="#701A75" stroke-width="0.715909" stroke-linecap="round" stroke-linejoin="round"/>
</g>
<g clip-path="url(#clip18_1_1060)">
<path d="M30.295 86.6098C30.4371 86.5619 30.4709 86.3764 30.3549 86.2813L25.5963 82.3816C25.4838 82.2893 25.3136 82.3518 25.2875 82.4949L24.2171 88.3632C24.191 88.5064 24.3281 88.6249 24.466 88.5784L30.295 86.6098Z" stroke="#701A75" stroke-width="0.715909" stroke-linecap="round" stroke-linejoin="round"/>
</g>
<g clip-path="url(#clip19_1_1060)">
<path d="M33.0356 71.5852C33.1777 71.5372 33.2115 71.3517 33.0955 71.2566L28.3369 67.3569C28.2244 67.2647 28.0542 67.3272 28.0281 67.4703L26.9577 73.3386C26.9316 73.4817 27.0687 73.6003 27.2066 73.5537L33.0356 71.5852Z" stroke="#701A75" stroke-width="0.715909" stroke-linecap="round" stroke-linejoin="round"/>
</g>
<g clip-path="url(#clip20_1_1060)">
<path d="M35.7762 56.5603C35.9183 56.5123 35.9521 56.3268 35.8361 56.2317L31.0775 52.332C30.965 52.2398 30.7948 52.3023 30.7687 52.4454L29.6983 58.3137C29.6722 58.4568 29.8093 58.5754 29.9472 58.5288L35.7762 56.5603Z" stroke="#701A75" stroke-width="0.715909" stroke-linecap="round" stroke-linejoin="round"/>
</g>
<g clip-path="url(#clip21_1_1060)">
<path d="M38.5168 41.5354C38.6588 41.4874 38.6927 41.3019 38.5767 41.2068L33.818 37.3071C33.7055 37.2149 33.5353 37.2774 33.5092 37.4205L32.4388 43.2888C32.4127 43.4319 32.5499 43.5505 32.6877 43.5039L38.5168 41.5354Z" stroke="#701A75" stroke-width="0.715909" stroke-linecap="round" stroke-linejoin="round"/>
</g>
<g clip-path="url(#clip22_1_1060)">
<path d="M41.2574 26.5105C41.3994 26.4625 41.4333 26.277 41.3173 26.1819L36.5586 22.2822C36.4461 22.19 36.2759 22.2525 36.2498 22.3956L35.1794 28.2639C35.1533 28.407 35.2905 28.5256 35.4283 28.479L41.2574 26.5105Z" stroke="#701A75" stroke-width="0.715909" stroke-linecap="round" stroke-linejoin="round"/>
</g>
<g clip-path="url(#clip23_1_1060)">
<path d="M43.998 11.4858C44.14 11.4378 44.1739 11.2523 44.0579 11.1573L39.2992 7.25753C39.1867 7.1653 39.0165 7.2278 38.9904 7.37091L37.92 13.2392C37.8939 13.3823 38.0311 13.5009 38.1689 13.4543L43.998 11.4858Z" stroke="#701A75" stroke-width="0.715909" stroke-linecap="round" stroke-linejoin="round"/>
</g>
<g clip-path="url(#clip24_1_1060)">
<path d="M15.2702 83.8694C15.4122 83.8214 15.4461 83.6359 15.3301 83.5408L10.5715 79.6411C10.4589 79.5488 10.2887 79.6113 10.2626 79.7545L9.19223 85.6228C9.16613 85.7659 9.30331 85.8844 9.44114 85.8379L15.2702 83.8694Z" stroke="#701A75" stroke-width="0.715909" stroke-linecap="round" stroke-linejoin="round"/>
</g>
<g clip-path="url(#clip25_1_1060)">
<path d="M18.0108 68.8445C18.1528 68.7965 18.1867 68.611 18.0707 68.5159L13.3121 64.6162C13.1995 64.5239 13.0293 64.5864 13.0032 64.7295L11.9328 70.5979C11.9067 70.741 12.0439 70.8595 12.1817 70.813L18.0108 68.8445Z" stroke="#701A75" stroke-width="0.715909" stroke-linecap="round" stroke-linejoin="round"/>
</g>
<g clip-path="url(#clip26_1_1060)">
<path d="M20.7514 53.8196C20.8934 53.7716 20.9273 53.5861 20.8113 53.491L16.0527 49.5913C15.9401 49.499 15.7699 49.5615 15.7438 49.7046L14.6734 55.573C14.6473 55.7161 14.7845 55.8346 14.9223 55.7881L20.7514 53.8196Z" stroke="#701A75" stroke-width="0.715909" stroke-linecap="round" stroke-linejoin="round"/>
</g>
<g clip-path="url(#clip27_1_1060)">
<path d="M23.4919 38.7949C23.634 38.7469 23.6678 38.5614 23.5518 38.4664L18.7932 34.5666C18.6807 34.4744 18.5105 34.5369 18.4844 34.68L17.414 40.5483C17.3879 40.6914 17.525 40.81 17.6629 40.7634L23.4919 38.7949Z" stroke="#701A75" stroke-width="0.715909" stroke-linecap="round" stroke-linejoin="round"/>
</g>
<g clip-path="url(#clip28_1_1060)">
<path d="M26.2325 23.77C26.3746 23.722 26.4084 23.5365 26.2924 23.4415L21.5338 19.5417C21.4213 19.4495 21.2511 19.512 21.225 19.6551L20.1546 25.5234C20.1285 25.6665 20.2656 25.7851 20.4035 25.7385L26.2325 23.77Z" stroke="#701A75" stroke-width="0.715909" stroke-linecap="round" stroke-linejoin="round"/>
</g>
<g clip-path="url(#clip29_1_1060)">
<path d="M28.9731 8.7451C29.1152 8.69711 29.149 8.51161 29.033 8.41656L24.2744 4.51681C24.1619 4.42458 23.9917 4.48707 23.9656 4.63018L22.8952 10.4985C22.8691 10.6416 23.0062 10.7602 23.1441 10.7136L28.9731 8.7451Z" stroke="#701A75" stroke-width="0.715909" stroke-linecap="round" stroke-linejoin="round"/>
</g>
<g clip-path="url(#clip30_1_1060)">
<path d="M0.24539 81.1286C0.387455 81.0807 0.42129 80.8952 0.305317 80.8001L-4.45332 76.9004C-4.56584 76.8081 -4.73604 76.8706 -4.76215 77.0137L-5.83255 82.882C-5.85865 83.0252 -5.72147 83.1437 -5.58364 83.0972L0.24539 81.1286Z" stroke="#701A75" stroke-width="0.715909" stroke-linecap="round" stroke-linejoin="round"/>
</g>
<g clip-path="url(#clip31_1_1060)">
<path d="M2.98599 66.104C3.12806 66.056 3.16189 65.8705 3.04592 65.7754L-1.71272 61.8757C-1.82524 61.7835 -1.99544 61.846 -2.02155 61.9891L-3.09195 67.8574C-3.11805 68.0005 -2.98087 68.1191 -2.84304 68.0725L2.98599 66.104Z" stroke="#701A75" stroke-width="0.715909" stroke-linecap="round" stroke-linejoin="round"/>
</g>
<g clip-path="url(#clip32_1_1060)">
<path d="M5.72653 51.0791C5.8686 51.0311 5.90243 50.8456 5.78646 50.7505L1.02782 46.8508C0.915301 46.7586 0.745098 46.8211 0.718993 46.9642L-0.351407 52.8325C-0.377513 52.9756 -0.240334 53.0942 -0.102503 53.0476L5.72653 51.0791Z" stroke="#701A75" stroke-width="0.715909" stroke-linecap="round" stroke-linejoin="round"/>
</g>
<g clip-path="url(#clip33_1_1060)">
<path d="M8.46713 36.0542C8.6092 36.0062 8.64303 35.8207 8.52706 35.7256L3.76842 31.8259C3.6559 31.7337 3.4857 31.7962 3.45959 31.9393L2.38919 37.8076C2.36309 37.9507 2.50027 38.0693 2.6381 38.0227L8.46713 36.0542Z" stroke="#701A75" stroke-width="0.715909" stroke-linecap="round" stroke-linejoin="round"/>
</g>
<g clip-path="url(#clip34_1_1060)">
<path d="M11.2077 21.0293C11.3498 20.9813 11.3836 20.7958 11.2677 20.7007L6.50902 16.801C6.3965 16.7088 6.2263 16.7713 6.20019 16.9144L5.12979 22.7827C5.10369 22.9258 5.24087 23.0444 5.3787 22.9978L11.2077 21.0293Z" stroke="#701A75" stroke-width="0.715909" stroke-linecap="round" stroke-linejoin="round"/>
</g>
<g clip-path="url(#clip35_1_1060)">
<path d="M13.9483 6.00462C14.0903 5.95663 14.1242 5.77113 14.0082 5.67608L9.24956 1.77633C9.13704 1.6841 8.96684 1.74659 8.94073 1.88971L7.87033 7.75801C7.84423 7.90113 7.98141 8.01969 8.11924 7.97315L13.9483 6.00462Z" stroke="#701A75" stroke-width="0.715909" stroke-linecap="round" stroke-linejoin="round"/>
</g>
<defs>
<clipPath id="clip0_1_1060">
<rect width="7.63636" height="7.63636" fill="white" transform="matrix(0.179443 -0.983768 -0.983768 -0.179443 75.6367 98.5918)"/>
</clipPath>
<clipPath id="clip1_1_1060">
<rect width="7.63636" height="7.63636" fill="white" transform="matrix(0.179443 -0.983768 -0.983768 -0.179443 78.3773 83.5671)"/>
</clipPath>
<clipPath id="clip2_1_1060">
<rect width="7.63636" height="7.63636" fill="white" transform="matrix(0.179443 -0.983768 -0.983768 -0.179443 81.1179 68.5422)"/>
</clipPath>
<clipPath id="clip3_1_1060">
<rect width="7.63636" height="7.63636" fill="white" transform="matrix(0.179443 -0.983768 -0.983768 -0.179443 83.8585 53.5173)"/>
</clipPath>
<clipPath id="clip4_1_1060">
<rect width="7.63636" height="7.63636" fill="white" transform="matrix(0.179443 -0.983768 -0.983768 -0.179443 86.5991 38.4924)"/>
</clipPath>
<clipPath id="clip5_1_1060">
<rect width="7.63636" height="7.63636" fill="white" transform="matrix(0.179443 -0.983768 -0.983768 -0.179443 89.3397 23.4678)"/>
</clipPath>
<clipPath id="clip6_1_1060">
<rect width="7.63636" height="7.63636" fill="white" transform="matrix(0.179443 -0.983768 -0.983768 -0.179443 60.6119 95.8513)"/>
</clipPath>
<clipPath id="clip7_1_1060">
<rect width="7.63636" height="7.63636" fill="white" transform="matrix(0.179443 -0.983768 -0.983768 -0.179443 63.3525 80.8264)"/>
</clipPath>
<clipPath id="clip8_1_1060">
<rect width="7.63636" height="7.63636" fill="white" transform="matrix(0.179443 -0.983768 -0.983768 -0.179443 66.0931 65.8015)"/>
</clipPath>
<clipPath id="clip9_1_1060">
<rect width="7.63636" height="7.63636" fill="white" transform="matrix(0.179443 -0.983768 -0.983768 -0.179443 68.8336 50.7769)"/>
</clipPath>
<clipPath id="clip10_1_1060">
<rect width="7.63636" height="7.63636" fill="white" transform="matrix(0.179443 -0.983768 -0.983768 -0.179443 71.5742 35.752)"/>
</clipPath>
<clipPath id="clip11_1_1060">
<rect width="7.63636" height="7.63636" fill="white" transform="matrix(0.179443 -0.983768 -0.983768 -0.179443 74.3148 20.7271)"/>
</clipPath>
<clipPath id="clip12_1_1060">
<rect width="7.63636" height="7.63636" fill="white" transform="matrix(0.179443 -0.983768 -0.983768 -0.179443 45.587 93.1106)"/>
</clipPath>
<clipPath id="clip13_1_1060">
<rect width="7.63636" height="7.63636" fill="white" transform="matrix(0.179443 -0.983768 -0.983768 -0.179443 48.3276 78.0859)"/>
</clipPath>
<clipPath id="clip14_1_1060">
<rect width="7.63636" height="7.63636" fill="white" transform="matrix(0.179443 -0.983768 -0.983768 -0.179443 51.0682 63.061)"/>
</clipPath>
<clipPath id="clip15_1_1060">
<rect width="7.63636" height="7.63636" fill="white" transform="matrix(0.179443 -0.983768 -0.983768 -0.179443 53.8088 48.0361)"/>
</clipPath>
<clipPath id="clip16_1_1060">
<rect width="7.63636" height="7.63636" fill="white" transform="matrix(0.179443 -0.983768 -0.983768 -0.179443 56.5494 33.0112)"/>
</clipPath>
<clipPath id="clip17_1_1060">
<rect width="7.63636" height="7.63636" fill="white" transform="matrix(0.179443 -0.983768 -0.983768 -0.179443 59.29 17.9866)"/>
</clipPath>
<clipPath id="clip18_1_1060">
<rect width="7.63636" height="7.63636" fill="white" transform="matrix(0.179443 -0.983768 -0.983768 -0.179443 30.5623 90.3701)"/>
</clipPath>
<clipPath id="clip19_1_1060">
<rect width="7.63636" height="7.63636" fill="white" transform="matrix(0.179443 -0.983768 -0.983768 -0.179443 33.3028 75.3452)"/>
</clipPath>
<clipPath id="clip20_1_1060">
<rect width="7.63636" height="7.63636" fill="white" transform="matrix(0.179443 -0.983768 -0.983768 -0.179443 36.0434 60.3203)"/>
</clipPath>
<clipPath id="clip21_1_1060">
<rect width="7.63636" height="7.63636" fill="white" transform="matrix(0.179443 -0.983768 -0.983768 -0.179443 38.784 45.2957)"/>
</clipPath>
<clipPath id="clip22_1_1060">
<rect width="7.63636" height="7.63636" fill="white" transform="matrix(0.179443 -0.983768 -0.983768 -0.179443 41.5245 30.2708)"/>
</clipPath>
<clipPath id="clip23_1_1060">
<rect width="7.63636" height="7.63636" fill="white" transform="matrix(0.179443 -0.983768 -0.983768 -0.179443 44.2651 15.2458)"/>
</clipPath>
<clipPath id="clip24_1_1060">
<rect width="7.63636" height="7.63636" fill="white" transform="matrix(0.179443 -0.983768 -0.983768 -0.179443 15.5374 87.6294)"/>
</clipPath>
<clipPath id="clip25_1_1060">
<rect width="7.63636" height="7.63636" fill="white" transform="matrix(0.179443 -0.983768 -0.983768 -0.179443 18.278 72.6047)"/>
</clipPath>
<clipPath id="clip26_1_1060">
<rect width="7.63636" height="7.63636" fill="white" transform="matrix(0.179443 -0.983768 -0.983768 -0.179443 21.0186 57.5798)"/>
</clipPath>
<clipPath id="clip27_1_1060">
<rect width="7.63636" height="7.63636" fill="white" transform="matrix(0.179443 -0.983768 -0.983768 -0.179443 23.7592 42.5549)"/>
</clipPath>
<clipPath id="clip28_1_1060">
<rect width="7.63636" height="7.63636" fill="white" transform="matrix(0.179443 -0.983768 -0.983768 -0.179443 26.4998 27.53)"/>
</clipPath>
<clipPath id="clip29_1_1060">
<rect width="7.63636" height="7.63636" fill="white" transform="matrix(0.179443 -0.983768 -0.983768 -0.179443 29.2403 12.5054)"/>
</clipPath>
<clipPath id="clip30_1_1060">
<rect width="7.63636" height="7.63636" fill="white" transform="matrix(0.179443 -0.983768 -0.983768 -0.179443 0.512573 84.8889)"/>
</clipPath>
<clipPath id="clip31_1_1060">
<rect width="7.63636" height="7.63636" fill="white" transform="matrix(0.179443 -0.983768 -0.983768 -0.179443 3.25317 69.864)"/>
</clipPath>
<clipPath id="clip32_1_1060">
<rect width="7.63636" height="7.63636" fill="white" transform="matrix(0.179443 -0.983768 -0.983768 -0.179443 5.99377 54.8391)"/>
</clipPath>
<clipPath id="clip33_1_1060">
<rect width="7.63636" height="7.63636" fill="white" transform="matrix(0.179443 -0.983768 -0.983768 -0.179443 8.73438 39.8145)"/>
</clipPath>
<clipPath id="clip34_1_1060">
<rect width="7.63636" height="7.63636" fill="white" transform="matrix(0.179443 -0.983768 -0.983768 -0.179443 11.4749 24.7896)"/>
</clipPath>
<clipPath id="clip35_1_1060">
<rect width="7.63636" height="7.63636" fill="white" transform="matrix(0.179443 -0.983768 -0.983768 -0.179443 14.2155 9.76465)"/>
</clipPath>
</defs>
</svg>
